<?xml version="1.0" encoding="utf-8"?>
<!-- Generator: Adobe Illustrator 16.0.2, SVG Export Plug-In . SVG Version: 6.00 Build 0)  -->
<!DOCTYPE svg PUBLIC "-//W3C//DTD SVG 1.1//EN" "http://www.w3.org/Graphics/SVG/1.1/DTD/svg11.dtd">
<svg version="1.1" id="圖層_1" xmlns="http://www.w3.org/2000/svg" xmlns:xlink="http://www.w3.org/1999/xlink" x="0px" y="0px"
	 width="37px" height="27px" viewBox="0 0 37 27" enable-background="new 0 0 37 27" xml:space="preserve">
<g>
	<path fill="#4F4F4F" d="M34.895,0.121H2.097C1.407,0.124,0.747,0.399,0.26,0.888C-0.227,1.376-0.5,2.037-0.5,2.727v21.546
		c0,0.69,0.273,1.353,0.76,1.84c0.487,0.489,1.147,0.764,1.837,0.767h32.798c0.69,0,1.354-0.274,1.842-0.763
		c0.489-0.489,0.764-1.151,0.764-1.844V2.709c-0.005-0.688-0.281-1.346-0.771-1.831C36.242,0.394,35.582,0.121,34.895,0.121z
		 M35.271,24.292c0,0.099-0.04,0.195-0.11,0.267s-0.167,0.11-0.267,0.11H2.097c-0.049,0-0.098-0.009-0.144-0.029
		c-0.045-0.018-0.086-0.046-0.12-0.082c-0.035-0.034-0.062-0.076-0.08-0.122c-0.018-0.047-0.026-0.095-0.025-0.144V2.709
		c0-0.099,0.039-0.193,0.107-0.264c0.069-0.071,0.163-0.111,0.261-0.114h32.798c0.1,0,0.196,0.04,0.267,0.11
		c0.07,0.071,0.11,0.167,0.11,0.268V24.292z"/>
	<path fill="#4F4F4F" d="M30.649,5.047c-0.104-0.147-0.241-0.269-0.401-0.353c-0.16-0.083-0.339-0.127-0.519-0.127
		c-0.181,0-0.359,0.044-0.52,0.127c-0.161,0.084-0.298,0.205-0.401,0.353c0,0-0.59,0.857-1.16,1.842
		c-1.133,1.961-1.262,2.763-1.262,3.26c0.045,0.857,0.417,1.665,1.04,2.256c0.622,0.591,1.448,0.92,2.307,0.92
		s1.685-0.329,2.307-0.92c0.624-0.591,0.995-1.398,1.041-2.256c0-0.46-0.139-1.299-1.271-3.26
		C31.239,5.904,30.668,5.084,30.649,5.047z M29.729,11.263c-0.289-0.01-0.564-0.132-0.765-0.339c-0.2-0.208-0.313-0.486-0.313-0.775
		c0.238-0.854,0.615-1.661,1.113-2.395c0.498,0.733,0.874,1.541,1.114,2.395c0.001,0.149-0.029,0.297-0.088,0.436
		c-0.059,0.137-0.145,0.262-0.252,0.366c-0.106,0.104-0.234,0.185-0.374,0.238C30.027,11.242,29.878,11.268,29.729,11.263z"/>
	<path fill="#4F4F4F" d="M12.391,9.771c0.371-0.542,0.569-1.184,0.571-1.841c-0.045-0.857-0.417-1.665-1.041-2.256
		c-0.623-0.591-1.448-0.92-2.307-0.92S7.93,5.083,7.308,5.674C6.685,6.265,6.313,7.072,6.268,7.93c0,0.656,0.195,1.298,0.562,1.841
		c-0.842,0.495-1.54,1.202-2.024,2.05s-0.739,1.808-0.738,2.785v2.237c0.002,0.296,0.122,0.58,0.333,0.788
		c0.21,0.209,0.495,0.325,0.791,0.325h8.922c0.295,0,0.579-0.116,0.788-0.325s0.327-0.493,0.327-0.788v-2.237
		c-0.005-0.984-0.27-1.95-0.768-2.799C13.961,10.957,13.248,10.255,12.391,9.771z M8.496,7.93c0-0.221,0.065-0.437,0.188-0.619
		s0.296-0.326,0.5-0.41s0.428-0.106,0.644-0.063c0.216,0.043,0.415,0.148,0.57,0.305s0.262,0.354,0.305,0.57
		c0.043,0.217,0.021,0.44-0.063,0.644c-0.084,0.204-0.227,0.378-0.41,0.501C10.045,8.979,9.831,9.044,9.61,9.044
		c-0.147,0-0.294-0.03-0.43-0.087c-0.137-0.058-0.26-0.141-0.364-0.246C8.712,8.605,8.63,8.48,8.575,8.343
		C8.521,8.206,8.494,8.059,8.496,7.911V7.93z M12.998,15.72h-6.73v-1.114c0.045-0.858,0.417-1.665,1.04-2.256
		c0.623-0.591,1.449-0.921,2.307-0.921s1.684,0.33,2.307,0.921c0.623,0.591,0.995,1.397,1.041,2.256L12.998,15.72z"/>
	<path fill="#4F4F4F" d="M14.076,20.185H5.154c-0.295,0-0.58,0.118-0.788,0.327c-0.209,0.209-0.326,0.491-0.326,0.787
		s0.117,0.579,0.326,0.787c0.208,0.21,0.493,0.327,0.788,0.327h8.922c0.295,0,0.579-0.117,0.788-0.327
		c0.208-0.208,0.326-0.491,0.326-0.787s-0.118-0.578-0.326-0.787C14.655,20.303,14.371,20.185,14.076,20.185z"/>
	<path fill="#4F4F4F" d="M18.523,9.025h4.466c0.295,0,0.578-0.117,0.787-0.327c0.21-0.208,0.326-0.491,0.326-0.787
		s-0.116-0.579-0.326-0.788c-0.209-0.209-0.492-0.326-0.787-0.326h-4.466c-0.295,0-0.579,0.117-0.788,0.326
		s-0.327,0.492-0.327,0.788s0.118,0.579,0.327,0.787C17.944,8.908,18.228,9.025,18.523,9.025z"/>
	<path fill="#4F4F4F" d="M18.523,13.491h4.466c0.295,0,0.578-0.118,0.787-0.327c0.21-0.208,0.326-0.492,0.326-0.788
		c0-0.295-0.116-0.578-0.326-0.787c-0.209-0.209-0.492-0.326-0.787-0.326h-4.466c-0.295,0-0.579,0.117-0.788,0.326
		s-0.327,0.492-0.327,0.787c0,0.296,0.118,0.58,0.327,0.788C17.944,13.373,18.228,13.491,18.523,13.491z"/>
	<path fill="#4F4F4F" d="M31.92,15.72H18.523c-0.279,0.024-0.539,0.154-0.728,0.361c-0.188,0.206-0.293,0.477-0.293,0.757
		c0,0.279,0.105,0.551,0.293,0.757c0.189,0.208,0.449,0.337,0.728,0.361H31.92c0.156,0.014,0.313-0.004,0.461-0.054
		c0.147-0.05,0.283-0.13,0.399-0.235c0.114-0.105,0.206-0.232,0.269-0.376c0.064-0.144,0.097-0.297,0.097-0.453
		c0-0.155-0.032-0.31-0.097-0.453c-0.063-0.143-0.154-0.271-0.269-0.376c-0.116-0.105-0.252-0.185-0.399-0.235
		C32.232,15.724,32.076,15.705,31.92,15.72z"/>
	<path fill="#4F4F4F" d="M31.92,20.185H18.523c-0.295,0-0.579,0.118-0.788,0.327s-0.327,0.491-0.327,0.787s0.118,0.579,0.327,0.787
		c0.209,0.21,0.492,0.327,0.788,0.327H31.92c0.296,0,0.579-0.117,0.788-0.327c0.208-0.208,0.327-0.491,0.327-0.787
		s-0.119-0.578-0.327-0.787C32.499,20.303,32.216,20.185,31.92,20.185z"/>
</g>
</svg>
